.


[color=green]Movies : Animation : HD1080p :2Audio[/color]

A Bugs Life 1998 1080p x264 2Audio(Arabic, English) - alrmothe




[img]http://img696.imageshack.us/img696/6881/91592186.jpg[/img]





[img]http://img219.imageshack.us/img219/462/imdbt.png[/img]
[color=red]IMDB:[/color] 
http://www.imdb.com/title/tt0120623/
[color=green]Genre:[/color] Animation | Adventure | Comedy
[color=green]Source:[/color]Blu-ray Disc

Language:Arabic, English
[color=green]File size:[/color]4.20 GiB
[color=green]Overall bit rate:[/color]6340 Kbps
[color=green]Duration:[/color]1h 34mn
 
Encoded / Released By:alrmothe



[img]http://i.imgur.com/fXeWi.png[/img]

Video Information
Format :Matroska
Format : AVC
Format profile:High@L4.1
Video Bit rate:5060 Kbps
Frame Rate: 23.976 fps
Bit depth : 8 bits
Scan type : Progressive
Bits/(Pixel*Frame):0.135
Stream size:3.27 GiB(78%)
[color=green]Resolution:1920x816[/color]


Audio Information:
Format : AC-3
Bit rate mode : Constant
Bit rate : 640 Kbps
Channel(s) : 6 channels
Channel positions:Front: L C R, Side:L R,LFE
Sampling rate : 48.0 KHz
Bit depth : 16 bits
Compression mode : Lossy
Stream size:434 MiB(10%)
Language:Arabic

Format : AC-3
Bit rate mode : Constant
Bit rate : 640 Kbps
Channel(s) : 6 channels
Channel positions:Front: L C R, Side:L R,LFE
Sampling rate : 48.0 KHz
Bit depth : 16 bits
Compression mode : Lossy
Stream size:434 MiB(10%)
Language:English

SUB:Arabic,Danish,Vietnamese,English,Croatian,Portuguese,Malay,Spanish.srt




Screenshots

 
http://img404.imageshack.us/img404/51/79401014.png
 
http://img84.imageshack.us/img84/3119/18676405.png
 
http://img84.imageshack.us/img84/4996/83125554.png
 
http://img442.imageshack.us/img442/6194/85396325.png


[img]http://img252.imageshack.us/img252/333/abugslife19981080px264a.png[/img]



[code] 
http://p2pdl.com:2710/announce
udp://tracker.1337x.org:80/announce 
http://exodus.desync.com/announce 
http://121.14.98.151:9090/announce 
http://tracker.ex.ua/announce 
http://tracker.torrentbay.to:6969/announce
udp://tracker.istole.it:80/announce 
http://94.228.192.98/announce
[/code]


[img]http://torrent-stats.info/9caf/1376f77a8.png[/img]



You can play movie on PlayStation 3 Media Server












Trailer




.